#!OML:ASF E:\emotionWalksFemale\Project 1\Capture day 1\Session 1\Female1.ASF
:FULLY-SPECIFIED
:DEGREES
96
root 8.56359 15.1131 41.4569 -179.374 -14.9619 -179.18
lowerback 5.17952 2.56298 2.02868
upperback -3.479 3.54291 -0.111498
thorax -6.39903 1.63486 -1.62279
lowerneck -1.36656 16.7062 7.72568
upperneck 3.69123 22.3863 -6.14605
head 3.13354 11.1314 -2.25542
rclavicle -3.29474e-014 -1.13866e-014
rhumerus -47.3748 17.6353 -100.33
rradius 32.8796
rwrist 17.7898
rhand -6.71164 -53.3677
rfingers 7.12502
rthumb 19.1481 -82.4451
lclavicle -3.29474e-014 -1.13866e-014
lhumerus -40.1707 -7.18729 90.2904
lradius 33.5125
lwrist -16.6115
lhand -8.66483 -39.7031
lfingers 7.12502
lthumb 17.2691 -10.4504
rfemur -2.06092 17.0765 26.7574
rtibia 26.8499
rfoot -26.3219 -34.4725
rtoes 8.55471
lfemur -9.15796 -24.2301 -24.0228
ltibia 31.1617
lfoot -24.6808 13.1444
ltoes -39.7462
97
root 8.56451 15.1118 41.4585 -179.379 -14.9557 -179.164
lowerback 5.17316 2.5729 2.07679
upperback -3.47188 3.55924 -0.125031
thorax -6.3835 1.6409 -1.66472
lowerneck -1.43683 16.6723 7.68171
upperneck 3.71905 22.3363 -6.09892
head 3.13946 11.1055 -2.23187
rclavicle -1.22746e-014 -2.87617e-015
rhumerus -47.3806 17.6514 -100.353
rradius 32.8905
rwrist 17.7807
rhand -6.68444 -53.3679
rfingers 7.12502
rthumb 19.1743 -82.4427
lclavicle -1.22746e-014 -2.87617e-015
lhumerus -40.1138 -7.23408 90.2771
lradius 33.5004
lwrist -16.5848
lhand -8.58785 -39.6934
lfingers 7.12502
lthumb 17.3431 -10.4472
rfemur -2.0668 17.0984 26.7739
rtibia 26.8411
rfoot -26.2671 -34.4813
rtoes 8.52452
lfemur -9.16584 -24.2493 -23.9994
ltibia 31.163
lfoot -24.6925 13.0606
ltoes -39.4111
98
root 8.565 15.1136 41.4608 -179.358 -14.9555 -179.163
lowerback 5.1603 2.59023 2.18426
upperback -3.4796 3.58685 -0.191784
thorax -6.37252 1.64832 -1.79626
lowerneck -1.502 16.6551 7.58923
upperneck 3.72329 22.3034 -5.94862
head 3.11626 11.0905 -2.17151
rclavicle 7.24477e-015 5.69021e-015
rhumerus -47.347 17.6361 -100.426
rradius 32.8747
rwrist 17.7456
rhand -6.50168 -53.6274
rfingers 7.12502
rthumb 19.35 -82.6846
lclavicle 7.24477e-015 5.69021e-015
lhumerus -40.1125 -7.42319 90.2585
lradius 33.5214
lwrist -16.5704
lhand -8.12081 -39.5833
lfingers 7.12502
lthumb 17.7926 -10.3772
rfemur -2.10371 17.0845 26.7652
rtibia 26.8418
rfoot -26.1087 -34.5155
rtoes 8.31425
lfemur -9.19802 -24.2453 -23.9786
ltibia 31.1576
lfoot -24.6762 12.9638
ltoes -38.9664
99
root 8.56637 15.1153 41.462 -179.365 -14.9362 -179.142
lowerback 5.14598 2.61447 2.25956
upperback -3.47444 3.62267 -0.234171
thorax -6.35005 1.66226 -1.88488
lowerneck -1.5325 16.6551 7.53961
upperneck 3.70716 22.295 -5.81207
head 3.08925 11.0889 -2.12311
rclavicle -2.70565e-014 -3.926e-015
rhumerus -47.1679 17.3762 -100.251
rradius 32.8651
rwrist 18.4194
rhand -5.31317 -53.9382
rfingers 7.12502
rthumb 20.4925 -82.8767
lclavicle -2.70565e-014 -3.926e-015
lhumerus -40.1395 -7.62424 90.2618
lradius 33.58
lwrist -16.5252
lhand -7.40796 -39.4537
lfingers 7.12502
lthumb 18.4784 -10.3113
rfemur -2.10951 17.0217 26.7889
rtibia 26.8485
rfoot -26.0232 -34.4984
rtoes 7.97741
lfemur -9.1973 -24.1849 -23.9458
ltibia 31.1428
lfoot -24.654 12.9707
ltoes -39.4196
100
root 8.56756 15.1139 41.4618 -179.394 -14.9274 -179.136
lowerback 5.12663 2.62322 2.26542
upperback -3.4633 3.6339 -0.243522
thorax -6.32566 1.66805 -1.89755
lowerneck -1.53397 16.6266 7.59778
upperneck 3.70657 22.2544 -5.79283
head 3.09132 11.0703 -2.12805
rclavicle -1.81143e-014 -2.33572e-015
rhumerus -47.1857 17.4509 -100.413
rradius 32.7629
rwrist 17.6538
rhand -6.60667 -53.5266
rfingers 7.12502
rthumb 19.2491 -82.594
lclavicle -1.81143e-014 -2.33572e-015
lhumerus -40.1558 -7.66312 90.2553
lradius 33.6096
lwrist -16.5053
lhand -7.1332 -39.4258
lfingers 7.12502
lthumb 18.7427 -10.3088
rfemur -2.069 17.0344 26.8205
rtibia 26.8694
rfoot -26.1592 -34.5008
rtoes 7.82112
lfemur -9.14602 -24.1498 -23.9561
ltibia 31.1081
lfoot -24.577 13.12
ltoes -40.3496
101
root 8.56822 15.1137 41.4604 -179.393 -14.9302 -179.19
lowerback 5.09864 2.62992 2.22764
upperback -3.48102 3.63688 -0.275203
thorax -6.32836 1.67 -1.90878
lowerneck -1.50774 16.5916 7.70413
upperneck 3.78977 22.2112 -5.83585
head 3.13276 11.0492 -2.15651
rclavicle 1.68905e-014 2.78299e-015
rhumerus -47.1435 17.2222 -100.267
rradius 32.785
rwrist 18.3207
rhand -5.5576 -53.9775
rfingers 7.12502
rthumb 20.2576 -82.9411
lclavicle 1.68905e-014 2.78299e-015
lhumerus -40.1866 -7.64462 90.2417
lradius 33.6193
lwrist -16.4984
lhand -6.61672 -39.2315
lfingers 7.12502
lthumb 19.2394 -10.1631
rfemur -2.03143 17.1458 26.7882
rtibia 26.8596
rfoot -26.3898 -34.5056
rtoes 8.07792
lfemur -9.1094 -24.2317 -24.0239
ltibia 31.0958
lfoot -24.6743 13.0392
ltoes -39.8365
102
root 8.56928 15.1154 41.4594 -179.378 -14.9181 -179.215
lowerback 5.06168 2.64689 2.23128
upperback -3.50785 3.65626 -0.30915
thorax -6.33217 1.67787 -1.94683
lowerneck -1.53269 16.5702 7.65597
upperneck 3.89083 22.1787 -5.71495
head 3.1465 11.0342 -2.10972
rclavicle 1.71824e-014 5.96354e-016
rhumerus -47.2618 17.3398 -100.492
rradius 32.7669
rwrist 17.7071
rhand -6.33779 -53.9998
rfingers 7.12502
rthumb 19.5076 -83.0412
lclavicle 1.71824e-014 5.96354e-016
lhumerus -40.2428 -7.73598 90.2795
lradius 33.6118
lwrist -16.5338
lhand -6.50088 -39.1655
lfingers 7.12502
lthumb 19.3508 -10.1083
rfemur -2.00205 17.2086 26.7685
rtibia 26.7823
rfoot -26.3497 -34.5083
rtoes 8.5489
lfemur -9.13086 -24.3136 -24.0455
ltibia 31.1405
lfoot -24.8467 12.8868
ltoes -39.0178
103
root 8.57143 15.1161 41.4605 -179.354 -14.8931 -179.095
lowerback 5.00219 2.65357 2.34453
upperback -3.53361 3.67245 -0.290764
thorax -6.31887 1.6807 -1.98979
lowerneck -1.58548 16.5434 7.62745
upperneck 3.9103 22.1368 -5.64025
head 3.14533 11.0139 -2.08134
rclavicle 3.19049e-014 3.23025e-015
rhumerus -47.1228 17.0996 -100.315
rradius 32.7105
rwrist 18.33
rhand -5.41023 -54.1555
rfingers 7.12502
rthumb 20.3992 -83.1041
lclavicle 3.19049e-014 3.23025e-015
lhumerus -40.263 -7.79479 90.2904
lradius 33.6007
lwrist -16.5645
lhand -6.88992 -39.4039
lfingers 7.12502
lthumb 18.9767 -10.3096
rfemur -2.02759 17.1972 26.8772
rtibia 26.6759
rfoot -26.1121 -34.5322
rtoes 8.71381
lfemur -9.24241 -24.2986 -23.8778
ltibia 31.2129
lfoot -24.7807 12.9747
ltoes -39.5436
104
root 8.57519 15.1152 41.4622 -179.4 -14.9198 -178.921
lowerback 5.02759 2.63156 2.47594
upperback -3.52754 3.65708 -0.238152
thorax -6.32342 1.66848 -2.00791
lowerneck -1.62884 16.5123 7.8197
upperneck 3.91282 22.1023 -5.89761
head 3.21352 10.992 -2.18177
rclavicle -4.41768e-014 -1.54058e-015
rhumerus -47.1044 17.2079 -100.446
rradius 32.609
rwrist 17.771
rhand -6.44497 -53.8222
rfingers 7.12502
rthumb 19.4046 -82.874
lclavicle -4.41768e-014 -1.54058e-015
lhumerus -40.2242 -7.77916 90.2727
lradius 33.61
lwrist -16.5814
lhand -7.07033 -39.4766
lfingers 7.12502
lthumb 18.8032 -10.3654
rfemur -1.99316 17.2347 27.083
rtibia 26.5848
rfoot -26.0609 -34.6061
rtoes 8.91608
lfemur -9.29955 -24.2451 -23.6615
ltibia 31.2823
lfoot -24.6614 13.0309
ltoes -40.2099
